<svg height="494" width="720" xmlns="http://www.w3.org/2000/svg">
<rect height="494" fill="#555" width="720"></rect>
<text fill="#7f7" font-family="Courier New" font-size="12" xml:space="preserve">
<tspan x="10" y="26">8 megabytes installed</tspan>
<tspan x="10" y="42"></tspan>
<tspan x="10" y="58">node_modules</tspan>
<tspan x="10" y="74">├── UNMET PEER DEPENDENCY react@^15</tspan>
<tspan x="10" y="90">└─┬ react-router@4.1.1 </tspan>
<tspan x="10" y="106">  ├─┬ history@4.6.1 </tspan>
<tspan x="10" y="122">  │ ├── resolve-pathname@2.0.2 </tspan>
<tspan x="10" y="138">  │ └── value-equal@0.2.0 </tspan>
<tspan x="10" y="154">  ├── hoist-non-react-statics@1.2.0 </tspan>
<tspan x="10" y="170">  ├── invariant@2.2.2 </tspan>
<tspan x="10" y="186">  ├─┬ loose-envify@1.3.1 </tspan>
<tspan x="10" y="202">  │ └── js-tokens@3.0.1 </tspan>
<tspan x="10" y="218">  ├─┬ path-to-regexp@1.7.0 </tspan>
<tspan x="10" y="234">  │ └── isarray@0.0.1 </tspan>
<tspan x="10" y="250">  ├─┬ prop-types@15.5.8 </tspan>
<tspan x="10" y="266">  │ └─┬ fbjs@0.8.12 </tspan>
<tspan x="10" y="282">  │   ├── core-js@1.2.7 </tspan>
<tspan x="10" y="298">  │   ├─┬ isomorphic-fetch@2.2.1 </tspan>
<tspan x="10" y="314">  │   │ ├─┬ node-fetch@1.6.3 </tspan>
<tspan x="10" y="330">  │   │ │ ├─┬ encoding@0.1.12 </tspan>
<tspan x="10" y="346">  │   │ │ │ └── iconv-lite@0.4.15 </tspan>
<tspan x="10" y="362">  │   │ │ └── is-stream@1.1.0 </tspan>
<tspan x="10" y="378">  │   │ └── whatwg-fetch@2.0.3 </tspan>
<tspan x="10" y="394">  │   ├── object-assign@4.1.1 </tspan>
<tspan x="10" y="410">  │   ├─┬ promise@7.1.1 </tspan>
<tspan x="10" y="426">  │   │ └── asap@2.0.5 </tspan>
<tspan x="10" y="442">  │   ├── setimmediate@1.0.5 </tspan>
<tspan x="10" y="458">  │   └── ua-parser-js@0.7.12 </tspan>
<tspan x="10" y="474">  └── warning@3.0.0</tspan>
</text>
</svg>
